<svg width="32" height="32" viewBox="0 0 32 32" fill="none" xmlns="http://www.w3.org/2000/svg">
<g id="GraduationCap">
<path id="Vector" d="M31.4701 11.1175L16.4701 3.11752C16.3254 3.04048 16.164 3.00018 16.0001 3.00018C15.8361 3.00018 15.6747 3.04048 15.5301 3.11752L0.530054 11.1175C0.370059 11.2028 0.236255 11.3299 0.142954 11.4854C0.0496529 11.6408 0.000366211 11.8187 0.000366211 12C0.000366211 12.1813 0.0496529 12.3592 0.142954 12.5146C0.236255 12.6701 0.370059 12.7973 0.530054 12.8825L4.00005 14.7338V20.7863C3.99901 21.2775 4.17979 21.7517 4.50755 22.1175C6.14505 23.9413 9.8138 27 16.0001 27C18.0512 27.017 20.0871 26.6454 22.0001 25.905V30C22.0001 30.2652 22.1054 30.5196 22.2929 30.7071C22.4805 30.8947 22.7348 31 23.0001 31C23.2653 31 23.5196 30.8947 23.7072 30.7071C23.8947 30.5196 24.0001 30.2652 24.0001 30V24.9388C25.3041 24.186 26.4824 23.2341 27.4926 22.1175C27.8203 21.7517 28.0011 21.2775 28.0001 20.7863V14.7338L31.4701 12.8825C31.63 12.7973 31.7639 12.6701 31.8572 12.5146C31.9505 12.3592 31.9997 12.1813 31.9997 12C31.9997 11.8187 31.9505 11.6408 31.8572 11.4854C31.7639 11.3299 31.63 11.2028 31.4701 11.1175ZM16.0001 25C10.5913 25 7.41005 22.3575 6.00005 20.7863V15.8L15.5301 20.8825C15.6747 20.9596 15.8361 20.9999 16.0001 20.9999C16.164 20.9999 16.3254 20.9596 16.4701 20.8825L22.0001 17.9338V23.7263C20.4251 24.4613 18.4401 25 16.0001 25ZM26.0001 20.7813C25.4006 21.4464 24.7299 22.0438 24.0001 22.5625V16.8663L26.0001 15.8V20.7813ZM23.5001 14.8675L23.4726 14.8513L16.4726 11.1175C16.239 10.9982 15.9679 10.9755 15.7178 11.0541C15.4676 11.1328 15.2583 11.3065 15.1351 11.538C15.0118 11.7695 14.9844 12.0401 15.0587 12.2916C15.1331 12.5431 15.3032 12.7553 15.5326 12.8825L21.3751 16L16.0001 18.8663L3.12505 12L16.0001 5.13377L28.8751 12L23.5001 14.8675Z" fill="#183E65"/>
</g>
</svg>
