<svg width="24" height="24" viewBox="0 0 24 24" fill="none" xmlns="http://www.w3.org/2000/svg">
<g id="Fire" clip-path="url(#clip0_868_8428)">
<g id="Clip path group">
<mask id="mask0_868_8428" style="mask-type:luminance" maskUnits="userSpaceOnUse" x="0" y="0" width="24" height="24">
<g id="a">
<path id="Vector" d="M0 0H24V24H0V0Z" fill="white"/>
</g>
</mask>
<g mask="url(#mask0_868_8428)">
<g id="Group">
<path id="Vector_2" d="M22.7374 12.6316C22.7374 11.3286 22.5056 10.0806 22.0805 8.92546C21.79 12.329 19.9755 14.0772 18.0795 13.2631C16.3028 12.5002 17.5003 9.52609 17.5887 8.10693C17.7378 5.70125 17.5812 2.94757 13.2113 0.658091C15.0271 4.13177 13.4216 6.28925 11.7372 6.42125C9.86895 6.56651 8.15863 4.81577 8.79021 1.97367C6.74516 3.48062 6.68516 6.01704 7.3161 7.65788C7.97421 9.3682 7.29021 10.7892 5.68474 10.9471C3.89168 11.124 2.89505 9.02651 3.814 5.6842C2.16432 7.62276 1.26006 10.0861 1.26368 12.6316C1.26368 18.5615 6.07063 23.3684 12.0005 23.3684C17.9304 23.3684 22.7374 18.5615 22.7374 12.6316Z" fill="#F4900C"/>
</g>
</g>
</g>
<g id="Clip path group_2">
<mask id="mask1_868_8428" style="mask-type:luminance" maskUnits="userSpaceOnUse" x="1" y="0" width="22" height="24">
<g id="b">
<path id="Vector_3" d="M11.7372 6.42125C9.86958 6.56714 8.15863 4.81577 8.79021 1.97367C6.74452 3.48062 6.68579 6.01767 7.31673 7.65788C7.97421 9.3682 7.29021 10.7892 5.68474 10.9471C3.89168 11.124 2.89568 9.02588 3.814 5.6842C2.16432 7.62276 1.26006 10.0861 1.26368 12.6316C1.26368 18.5615 6.07063 23.3684 12.0005 23.3684C17.9304 23.3684 22.7374 18.5615 22.7374 12.6316C22.7374 11.3286 22.5056 10.0806 22.0805 8.92546C21.79 12.3284 19.9755 14.0772 18.0795 13.2631C16.3035 12.5002 17.5003 9.52609 17.5887 8.10693C17.7378 5.70125 17.5812 2.94757 13.2113 0.658091C15.0271 4.13114 13.4216 6.28988 11.7372 6.42125Z" fill="white"/>
</g>
</mask>
<g mask="url(#mask1_868_8428)">
<g id="Group_2">
<path id="Vector_4" d="M19.5798 19.5789C19.5798 18.1976 19.2109 16.9035 18.5661 15.7888C18.6589 17.7366 16.948 18.5002 16.0271 18.1313C14.6977 17.5989 15.0539 16.6844 14.7116 14.7896C14.3692 12.8949 13.0537 11.5787 11.1059 11.0002C12.5269 14.9999 10.3183 16.474 9.16062 16.7374C7.9783 17.0065 6.7903 16.7368 6.65451 14.2067C5.94594 14.9103 5.38381 15.7473 5.0006 16.6694C4.61739 17.5915 4.4207 18.5803 4.42188 19.5789C4.42188 23.7644 7.81535 27.1578 12.0008 27.1578C16.1863 27.1578 19.5798 23.7644 19.5798 19.5789Z" fill="#FFCC4D"/>
</g>
</g>
</g>
</g>
<defs>
<clipPath id="clip0_868_8428">
<rect width="24" height="24" fill="white"/>
</clipPath>
</defs>
</svg>
