<svg width="231" height="70" viewBox="0 0 231 70" fill="none" xmlns="http://www.w3.org/2000/svg">
<mask id="mask0_311_36" style="mask-type:luminance" maskUnits="userSpaceOnUse" x="12" y="0" width="96" height="43">
<path d="M12.6245 0H107.818V42.0503H12.6245V0Z" fill="white"/>
</mask>
<g mask="url(#mask0_311_36)">
<path fill-rule="evenodd" clip-rule="evenodd" d="M19.0596 12.1592H38.6098L40.061 7.33291C41.2742 3.29957 45.3792 0 49.1844 0C56.543 0 63.9017 0 71.2588 0C75.0639 0 79.169 3.29957 80.3821 7.33291L81.8334 12.1592H101.385C104.916 12.1592 107.8 15.2221 107.8 18.9613V42.0503H103.869V18.9613C103.869 17.5226 102.743 16.3284 101.385 16.3284H78.9595L76.6372 8.60222C75.9802 6.41849 73.4575 4.16922 71.2588 4.16922C63.9017 4.16922 56.543 4.16922 49.1844 4.16922C46.9872 4.16922 44.463 6.41849 43.8074 8.60222L41.4836 16.3284H19.0596C17.7018 16.3284 16.5746 17.5226 16.5746 18.9613V42.0503H12.6428V18.9613C12.6428 15.2221 15.5317 12.1592 19.0596 12.1592Z" fill="#F8F8F8"/>
</g>
<path fill-rule="evenodd" clip-rule="evenodd" d="M56.7411 14.75C71.0044 14.75 82.5777 26.9529 82.6782 42.051H79.0328C78.9308 29.088 68.9917 18.6142 56.7383 18.6142C44.4862 18.6142 34.5485 29.085 34.4465 42.051H30.8025C30.9045 26.9529 42.4777 14.75 56.7411 14.75Z" fill="#FF6B00"/>
<mask id="mask1_311_36" style="mask-type:luminance" maskUnits="userSpaceOnUse" x="39" y="23" width="36" height="20">
<path d="M39.3845 23.9243H74.068V42.0509H39.3845V23.9243Z" fill="white"/>
</mask>
<g mask="url(#mask1_311_36)">
<path fill-rule="evenodd" clip-rule="evenodd" d="M73.8795 42.0501C73.8403 38.297 72.7286 34.8166 70.8528 31.9393L63.7113 33.255L68.4043 42.0501H73.8795ZM56.7416 24.0806C56.4162 24.0806 56.0936 24.0924 55.7737 24.1117L52.9216 31.3955H70.484C67.3581 26.952 62.3663 24.0806 56.7416 24.0806ZM55.0795 24.165C49.1644 24.7681 44.1278 28.5596 41.5187 33.8995L45.931 40.1965L55.0795 24.165ZM41.1877 34.6107C40.1974 36.8761 39.6304 39.395 39.6052 42.0501H44.9686L41.1877 34.6107Z" fill="#F8F8F8"/>
</g>
<path fill-rule="evenodd" clip-rule="evenodd" d="M23.1401 7.81494H32.1574V11.6791H23.1401V7.81494Z" fill="#F8F8F8"/>
<path d="M6.804 43.98V69H2.7V43.98H6.804ZM36.2042 48.84C37.7642 48.84 39.1562 49.164 40.3802 49.812C41.6282 50.46 42.6002 51.42 43.2962 52.692C44.0162 53.964 44.3762 55.5 44.3762 57.3V69H40.3082V57.912C40.3082 56.136 39.8642 54.78 38.9762 53.844C38.0882 52.884 36.8762 52.404 35.3402 52.404C33.8042 52.404 32.5802 52.884 31.6682 53.844C30.7802 54.78 30.3362 56.136 30.3362 57.912V69H26.2682V57.912C26.2682 56.136 25.8242 54.78 24.9362 53.844C24.0482 52.884 22.8362 52.404 21.3002 52.404C19.7642 52.404 18.5402 52.884 17.6282 53.844C16.7402 54.78 16.2962 56.136 16.2962 57.912V69H12.1922V49.164H16.2962V51.432C16.9682 50.616 17.8202 49.98 18.8522 49.524C19.8842 49.068 20.9882 48.84 22.1642 48.84C23.7482 48.84 25.1642 49.176 26.4122 49.848C27.6602 50.52 28.6202 51.492 29.2922 52.764C29.8922 51.564 30.8282 50.616 32.1002 49.92C33.3722 49.2 34.7402 48.84 36.2042 48.84ZM48.2304 58.992C48.2304 57 48.6384 55.236 49.4544 53.7C50.2944 52.164 51.4224 50.976 52.8384 50.136C54.2784 49.272 55.8624 48.84 57.5904 48.84C59.1504 48.84 60.5064 49.152 61.6584 49.776C62.8344 50.376 63.7704 51.132 64.4664 52.044V49.164H68.6064V69H64.4664V66.048C63.7704 66.984 62.8224 67.764 61.6224 68.388C60.4224 69.012 59.0544 69.324 57.5184 69.324C55.8144 69.324 54.2544 68.892 52.8384 68.028C51.4224 67.14 50.2944 65.916 49.4544 64.356C48.6384 62.772 48.2304 60.984 48.2304 58.992ZM64.4664 59.064C64.4664 57.696 64.1784 56.508 63.6024 55.5C63.0504 54.492 62.3184 53.724 61.4064 53.196C60.4944 52.668 59.5104 52.404 58.4544 52.404C57.3984 52.404 56.4144 52.668 55.5024 53.196C54.5904 53.7 53.8464 54.456 53.2704 55.464C52.7184 56.448 52.4424 57.624 52.4424 58.992C52.4424 60.36 52.7184 61.56 53.2704 62.592C53.8464 63.624 54.5904 64.416 55.5024 64.968C56.4384 65.496 57.4224 65.76 58.4544 65.76C59.5104 65.76 60.4944 65.496 61.4064 64.968C62.3184 64.44 63.0504 63.672 63.6024 62.664C64.1784 61.632 64.4664 60.432 64.4664 59.064ZM77.6329 65.652H86.6329V69H72.8809V65.652L81.9169 52.512H72.8809V49.164H86.6329V52.512L77.6329 65.652ZM109.122 58.596C109.122 59.34 109.074 60.012 108.978 60.612H93.8222C93.9422 62.196 94.5302 63.468 95.5862 64.428C96.6422 65.388 97.9382 65.868 99.4742 65.868C101.682 65.868 103.242 64.944 104.154 63.096H108.582C107.982 64.92 106.89 66.42 105.306 67.596C103.746 68.748 101.802 69.324 99.4742 69.324C97.5782 69.324 95.8742 68.904 94.3622 68.064C92.8742 67.2 91.6982 66 90.8342 64.464C89.9942 62.904 89.5742 61.104 89.5742 59.064C89.5742 57.024 89.9822 55.236 90.7982 53.7C91.6382 52.14 92.8022 50.94 94.2902 50.1C95.8022 49.26 97.5302 48.84 99.4742 48.84C101.346 48.84 103.014 49.248 104.478 50.064C105.942 50.88 107.082 52.032 107.898 53.52C108.714 54.984 109.122 56.676 109.122 58.596ZM104.838 57.3C104.814 55.788 104.274 54.576 103.218 53.664C102.162 52.752 100.854 52.296 99.2942 52.296C97.8782 52.296 96.6662 52.752 95.6582 53.664C94.6502 54.552 94.0502 55.764 93.8582 57.3H104.838ZM155.093 43.98L147.677 69H143.033L137.777 50.064L132.197 69L127.589 69.036L120.497 43.98H124.853L130.037 64.356L135.653 43.98H140.261L145.481 64.248L150.701 43.98H155.093ZM167.081 69.324C165.209 69.324 163.517 68.904 162.005 68.064C160.493 67.2 159.305 66 158.441 64.464C157.577 62.904 157.145 61.104 157.145 59.064C157.145 57.048 157.589 55.26 158.477 53.7C159.365 52.14 160.577 50.94 162.113 50.1C163.649 49.26 165.365 48.84 167.261 48.84C169.157 48.84 170.873 49.26 172.409 50.1C173.945 50.94 175.157 52.14 176.045 53.7C176.933 55.26 177.377 57.048 177.377 59.064C177.377 61.08 176.921 62.868 176.009 64.428C175.097 65.988 173.849 67.2 172.265 68.064C170.705 68.904 168.977 69.324 167.081 69.324ZM167.081 65.76C168.137 65.76 169.121 65.508 170.033 65.004C170.969 64.5 171.725 63.744 172.301 62.736C172.877 61.728 173.165 60.504 173.165 59.064C173.165 57.624 172.889 56.412 172.337 55.428C171.785 54.42 171.053 53.664 170.141 53.16C169.229 52.656 168.245 52.404 167.189 52.404C166.133 52.404 165.149 52.656 164.237 53.16C163.349 53.664 162.641 54.42 162.113 55.428C161.585 56.412 161.321 57.624 161.321 59.064C161.321 61.2 161.861 62.856 162.941 64.032C164.045 65.184 165.425 65.76 167.081 65.76ZM185.538 52.044C186.138 51.036 186.93 50.256 187.914 49.704C188.922 49.128 190.11 48.84 191.478 48.84V53.088H190.434C188.826 53.088 187.602 53.496 186.762 54.312C185.946 55.128 185.538 56.544 185.538 58.56V69H181.434V49.164H185.538V52.044ZM199.355 42.36V69H195.251V42.36H199.355ZM203.375 58.992C203.375 57 203.783 55.236 204.599 53.7C205.439 52.164 206.567 50.976 207.983 50.136C209.423 49.272 211.019 48.84 212.771 48.84C214.067 48.84 215.339 49.128 216.587 49.704C217.859 50.256 218.867 51 219.611 51.936V42.36H223.751V69H219.611V66.012C218.939 66.972 218.003 67.764 216.803 68.388C215.627 69.012 214.271 69.324 212.735 69.324C211.007 69.324 209.423 68.892 207.983 68.028C206.567 67.14 205.439 65.916 204.599 64.356C203.783 62.772 203.375 60.984 203.375 58.992ZM219.611 59.064C219.611 57.696 219.323 56.508 218.747 55.5C218.195 54.492 217.463 53.724 216.551 53.196C215.639 52.668 214.655 52.404 213.599 52.404C212.543 52.404 211.559 52.668 210.647 53.196C209.735 53.7 208.991 54.456 208.415 55.464C207.863 56.448 207.587 57.624 207.587 58.992C207.587 60.36 207.863 61.56 208.415 62.592C208.991 63.624 209.735 64.416 210.647 64.968C211.583 65.496 212.567 65.76 213.599 65.76C214.655 65.76 215.639 65.496 216.551 64.968C217.463 64.44 218.195 63.672 218.747 62.664C219.323 61.632 219.611 60.432 219.611 59.064Z" fill="#FF8000"/>
</svg>
