<svg width="32" height="32" viewBox="0 0 32 32" fill="none" xmlns="http://www.w3.org/2000/svg">
<g id="ShootingStar">
<path id="Vector" d="M29.9212 8.76252C29.8217 8.45224 29.6324 8.17848 29.3771 7.97597C29.1219 7.77346 28.8122 7.65131 28.4874 7.62502L23.8349 7.23127L22.0199 3.00002C21.8918 2.70338 21.6797 2.45074 21.4097 2.27324C21.1397 2.09574 20.8237 2.00116 20.5006 2.00116C20.1775 2.00116 19.8614 2.09574 19.5914 2.27324C19.3214 2.45074 19.1093 2.70338 18.9812 3.00002L17.1662 7.23252L12.5124 7.62502C12.1893 7.65097 11.8811 7.77205 11.6267 7.97297C11.3722 8.17389 11.183 8.44565 11.0829 8.75399C10.9827 9.06232 10.9761 9.3934 11.0639 9.70547C11.1517 10.0175 11.33 10.2966 11.5762 10.5075L15.0962 13.5075L14.0424 17.9738C13.9684 18.2868 13.9881 18.6148 14.0993 18.9166C14.2104 19.2185 14.408 19.481 14.6674 19.6713C14.9299 19.864 15.2434 19.9751 15.5686 19.9907C15.8939 20.0062 16.2165 19.9256 16.4962 19.7588L20.4962 17.3838L24.4962 19.7588C24.7759 19.9256 25.0985 20.0062 25.4238 19.9907C25.749 19.9751 26.0625 19.864 26.3249 19.6713C26.5845 19.4811 26.7822 19.2187 26.8933 18.9167C27.0045 18.6148 27.0242 18.2868 26.9499 17.9738L25.8962 13.5075L29.4149 10.5075C29.6626 10.2994 29.8429 10.0225 29.933 9.71188C30.0232 9.40123 30.019 9.07082 29.9212 8.76252ZM24.4387 12.1375C24.2084 12.3327 24.0367 12.5878 23.9427 12.8747C23.8487 13.1616 23.836 13.4689 23.9062 13.7625L24.8199 17.6375L21.3474 15.5738C21.0912 15.421 20.7983 15.3403 20.4999 15.3403C20.2016 15.3403 19.9087 15.421 19.6524 15.5738L16.1799 17.625L17.0937 13.75C17.1649 13.4565 17.1529 13.149 17.059 12.862C16.9652 12.575 16.7932 12.3198 16.5624 12.125L13.5299 9.54752L17.5412 9.20752C17.8389 9.18254 18.1242 9.07695 18.3664 8.9021C18.6087 8.72724 18.7987 8.48972 18.9162 8.21502L20.4999 4.53002L22.0799 8.21502C22.1976 8.48956 22.3877 8.72694 22.6299 8.90176C22.8721 9.07658 23.1573 9.18227 23.4549 9.20752L27.4662 9.54752L24.4387 12.1375ZM10.7074 15.7075L3.70745 22.7075C3.51981 22.8952 3.26531 23.0006 2.99995 23.0006C2.73458 23.0006 2.48009 22.8952 2.29245 22.7075C2.10481 22.5199 1.99939 22.2654 1.99939 22C1.99939 21.7347 2.10481 21.4802 2.29245 21.2925L9.29245 14.2925C9.48009 14.1049 9.73458 13.9995 9.99995 13.9995C10.2653 13.9995 10.5198 14.1049 10.7074 14.2925C10.8951 14.4802 11.0005 14.7347 11.0005 15C11.0005 15.2654 10.8951 15.5199 10.7074 15.7075ZM12.7074 22.7075L5.70745 29.7075C5.61454 29.8004 5.50424 29.8741 5.38284 29.9244C5.26145 29.9747 5.13134 30.0006 4.99995 30.0006C4.86855 30.0006 4.73844 29.9747 4.61705 29.9244C4.49566 29.8741 4.38536 29.8004 4.29245 29.7075C4.19954 29.6146 4.12584 29.5043 4.07555 29.3829C4.02527 29.2615 3.99939 29.1314 3.99939 29C3.99939 28.8686 4.02527 28.7385 4.07555 28.6171C4.12584 28.4957 4.19954 28.3854 4.29245 28.2925L11.2924 21.2925C11.4801 21.1049 11.7346 20.9995 11.9999 20.9995C12.2653 20.9995 12.5198 21.1049 12.7074 21.2925C12.8951 21.4802 13.0005 21.7347 13.0005 22C13.0005 22.2654 12.8951 22.5199 12.7074 22.7075ZM21.7074 21.2925C21.8004 21.3854 21.8742 21.4957 21.9245 21.6171C21.9748 21.7385 22.0007 21.8686 22.0007 22C22.0007 22.1314 21.9748 22.2616 21.9245 22.383C21.8742 22.5044 21.8004 22.6146 21.7074 22.7075L14.7074 29.7075C14.6145 29.8004 14.5042 29.8741 14.3828 29.9244C14.2614 29.9747 14.1313 30.0006 13.9999 30.0006C13.8686 30.0006 13.7384 29.9747 13.617 29.9244C13.4957 29.8741 13.3854 29.8004 13.2924 29.7075C13.1995 29.6146 13.1258 29.5043 13.0756 29.3829C13.0253 29.2615 12.9994 29.1314 12.9994 29C12.9994 28.8686 13.0253 28.7385 13.0756 28.6171C13.1258 28.4957 13.1995 28.3854 13.2924 28.2925L20.2924 21.2925C20.3853 21.1995 20.4956 21.1258 20.617 21.0755C20.7384 21.0251 20.8685 20.9992 20.9999 20.9992C21.1314 20.9992 21.2615 21.0251 21.3829 21.0755C21.5043 21.1258 21.6146 21.1995 21.7074 21.2925Z" fill="#183E65"/>
</g>
</svg>
